<svg width="35" height="40" viewBox="0 0 35 40" fill="none" xmlns="http://www.w3.org/2000/svg">
<path d="M11.4262 17.5069L8.59619 20.3369L13.9358 25.6765C14.3112 26.0514 14.8201 26.262 15.3507 26.262C15.8814 26.262 16.3903 26.0514 16.7657 25.6765L26.7774 15.6648L23.9474 12.8348L15.3507 21.4315L11.4262 17.5069Z" fill="#97C61D"/>
<path d="M18.6885 0.460538L17.3536 0L16.0187 0.460538L2.66978 5.13266L0 6.07375V22.1592C0.00506109 25.1484 0.871489 28.0727 2.49556 30.5822C4.11963 33.0917 6.43252 35.08 9.15735 36.309L15.7117 39.2591L17.3536 40L18.9955 39.2591L25.5498 36.309C28.2757 35.0795 30.5893 33.0902 32.2134 30.5794C33.8376 28.0686 34.7034 25.1428 34.7072 22.1525V6.06708L32.0374 5.12598L18.6885 0.460538ZM30.7025 22.1525C30.7024 24.3721 30.061 26.5443 28.8556 28.4081C27.6503 30.2718 25.9321 31.7476 23.9079 32.6581L17.3536 35.6082L10.7993 32.6581C8.77503 31.7476 7.05691 30.2718 5.85152 28.4081C4.64614 26.5443 4.00481 24.3721 4.00467 22.1525V8.9104L17.3536 4.23828L30.7025 8.9104V22.1525Z" fill="#97C61D"/>
</svg>
