<svg width="32" height="32" viewBox="0 0 32 32" fill="none" xmlns="http://www.w3.org/2000/svg">
<g clip-path="url(#clip0_284_14)">
<path d="M16 32C24.8366 32 32 24.8366 32 16C32 7.16344 24.8366 0 16 0C7.16344 0 0 7.16344 0 16C0 24.8366 7.16344 32 16 32Z" fill="#97C61D"/>
<path d="M7.3212 15.6533L22.7479 9.7053C23.4639 9.44664 24.0892 9.87997 23.8572 10.9626L23.8585 10.9613L21.2319 23.336C21.0372 24.2133 20.5159 24.4266 19.7865 24.0133L15.7865 21.0653L13.8572 22.924C13.6439 23.1373 13.4639 23.3173 13.0505 23.3173L13.3345 19.2466L20.7479 12.5493C21.0705 12.2653 20.6759 12.1053 20.2505 12.388L11.0892 18.156L7.13986 16.924C6.28253 16.652 6.26386 16.0666 7.3212 15.6533Z" fill="#222222"/>
</g>
<defs>
<clipPath id="clip0_284_14">
<rect width="32" height="32" fill="white"/>
</clipPath>
</defs>
</svg>
