<svg width="32" height="32" viewBox="0 0 32 32" fill="none" xmlns="http://www.w3.org/2000/svg">
<g clip-path="url(#clip0_284_9)">
<path d="M16.0042 31.0442C13.0453 31.0442 10.1842 30.1849 7.73009 28.5592L7.34786 28.306L6.91113 28.4456L2.5586 29.837L3.95242 25.682L4.10936 25.2142L3.8189 24.8154C1.94601 22.2433 0.956055 19.195 0.956055 16C0.956055 7.70465 7.70304 0.955872 15.9962 0.955872C24.2974 0.955872 31.0444 7.70465 31.0444 16C31.0444 24.2954 24.2974 31.0442 16.0042 31.0442Z" fill="#97C61D"/>
<path d="M15.996 1.91176C8.22993 1.91176 1.91176 8.23173 1.91176 16C1.91176 18.9915 2.83838 21.8452 4.59145 24.2527L5.17236 25.0505L4.85849 25.9861L4.06486 28.3519L6.6199 27.5351L7.49334 27.2559L8.25782 27.7623C10.5549 29.284 13.2335 30.0883 16.004 30.0883C23.7701 30.0883 30.0883 23.7683 30.0883 16C30.0883 8.23173 23.7701 1.91176 16.004 1.91176H15.996ZM15.996 0H16.004C24.826 0 32.0001 7.17802 32.0001 16C32.0001 24.822 24.826 32.0001 16.004 32.0001C12.75 32.0001 9.73202 31.0321 7.20202 29.3561L1.052 31.3221L3.04601 25.378C1.12801 22.744 0 19.5 0 16C0 7.17601 7.17401 0 15.996 0Z" fill="#222222"/>
<path d="M24.3101 21.8847C23.9665 22.855 22.6029 23.6597 21.5151 23.8947C20.7709 24.0532 19.7989 24.1795 16.5272 22.8231C12.3418 21.0891 9.64662 16.8361 9.43633 16.5602C9.23524 16.2842 7.74512 14.3081 7.74512 12.2644C7.74512 10.2208 8.78303 9.22562 9.20135 8.79825C9.54495 8.44753 10.1129 8.28729 10.6576 8.28729C10.8338 8.28729 10.9923 8.29616 11.1347 8.30328C11.553 8.32066 11.7631 8.34604 12.0384 9.00646C12.382 9.83425 13.2186 11.8781 13.3184 12.088C13.3889 12.2025 13.4311 12.3321 13.4416 12.4661C13.4521 12.6002 13.4306 12.7348 13.3789 12.8588C13.2618 13.1003 13.1061 13.3209 12.9178 13.5121C12.7077 13.7542 12.5083 13.9393 12.2982 14.1993C12.106 14.4252 11.8888 14.6675 12.1309 15.0857C12.7569 16.1507 13.5357 17.1182 14.4423 17.9573C15.4158 18.8482 16.5489 19.5471 17.782 20.0171C17.9459 20.0949 18.1294 20.1214 18.3085 20.0931C18.4877 20.0648 18.6541 19.9831 18.786 19.8586C19.1829 19.3875 19.5542 18.8954 19.8983 18.3845C19.9998 18.2152 20.1606 18.0897 20.3495 18.0324C20.5384 17.9752 20.7419 17.9903 20.9202 18.0748C21.3048 18.2083 23.3397 19.2142 23.758 19.4224C24.1763 19.6306 24.4523 19.7321 24.5538 19.909C24.6553 20.086 24.6537 20.9127 24.3101 21.8847Z" fill="#FAFAFA"/>
</g>
<defs>
<clipPath id="clip0_284_9">
<rect width="32" height="32" fill="white"/>
</clipPath>
</defs>
</svg>
